<svg width="201" height="156" viewBox="0 0 201 156" fill="none" xmlns="http://www.w3.org/2000/svg">
<path d="M56 5H143V119L100.5 156L56 119V5Z" fill="#D0021B"/>
<line x1="0.0124998" y1="2.50003" x2="200.012" y2="3.50003" stroke="#D0021B" stroke-width="5"/>
<path d="M115.025 51.9091C114.642 48.6705 113.086 46.1562 110.359 44.3665C107.632 42.5767 104.287 41.6818 100.324 41.6818C97.4259 41.6818 94.8904 42.1506 92.7171 43.0881C90.5651 44.0256 88.8818 45.3146 87.6673 46.9553C86.4742 48.5959 85.8776 50.4602 85.8776 52.5483C85.8776 54.2955 86.2931 55.7976 87.124 57.0547C87.9763 58.2905 89.0629 59.3239 90.384 60.1548C91.705 60.9645 93.0899 61.6357 94.5388 62.1683C95.9877 62.6797 97.3193 63.0952 98.5338 63.4148L105.182 65.2045C106.886 65.652 108.782 66.2699 110.87 67.0582C112.98 67.8466 114.993 68.9226 116.911 70.2862C118.85 71.6285 120.448 73.3544 121.705 75.4638C122.962 77.5732 123.591 80.1619 123.591 83.2301C123.591 86.767 122.664 89.9631 120.81 92.8182C118.978 95.6733 116.293 97.9425 112.756 99.6257C109.241 101.309 104.968 102.151 99.9401 102.151C95.2526 102.151 91.1936 101.394 87.7632 99.8814C84.3541 98.3686 81.6695 96.2592 79.7093 93.5533C77.7703 90.8473 76.673 87.7045 76.4173 84.125H84.5992C84.8122 86.5966 85.6432 88.642 87.0921 90.2614C88.5622 91.8594 90.4159 93.0526 92.6531 93.8409C94.9117 94.608 97.3406 94.9915 99.9401 94.9915C102.966 94.9915 105.682 94.5014 108.09 93.5213C110.498 92.5199 112.405 91.1349 113.811 89.3665C115.217 87.5767 115.92 85.4886 115.92 83.1023C115.92 80.929 115.313 79.1605 114.098 77.7969C112.884 76.4332 111.286 75.3253 109.304 74.473C107.323 73.6207 105.182 72.875 102.88 72.2358L94.8264 69.9347C89.7128 68.4645 85.6645 66.3658 82.6816 63.6385C79.6986 60.9112 78.2071 57.3423 78.2071 52.9318C78.2071 49.267 79.1979 46.071 81.1794 43.3438C83.1823 40.5952 85.8669 38.4645 89.2334 36.9517C92.6212 35.4176 96.4031 34.6506 100.579 34.6506C104.798 34.6506 108.548 35.407 111.829 36.9197C115.111 38.4112 117.71 40.4567 119.628 43.0561C121.566 45.6555 122.589 48.6065 122.696 51.9091H115.025Z" fill="white"/>
</svg>
